<?xml version="1.0" standalone="no"?>
<!DOCTYPE svg PUBLIC "-//W3C//DTD SVG 20010904//EN"
 "http://www.w3.org/TR/2001/REC-SVG-20010904/DTD/svg10.dtd">
<svg version="1.0" xmlns="http://www.w3.org/2000/svg"
 width="641.000000pt" height="628.000000pt" viewBox="0 0 641.000000 628.000000"
 preserveAspectRatio="xMidYMid meet">

<g transform="translate(0.000000,628.000000) scale(0.100000,-0.100000)"
fill="#000000" stroke="none">
<path d="M0 4212 c0 -36 8 -65 31 -108 79 -147 183 -247 330 -317 75 -35 325
-103 744 -202 261 -62 332 -80 420 -107 95 -29 137 -48 104 -48 -21 0 -190 19
-214 24 -11 2 -40 7 -65 11 -25 3 -90 16 -145 27 -55 11 -120 24 -145 29 -25
5 -72 16 -105 24 -33 8 -197 47 -365 88 -372 91 -442 107 -457 107 -24 0 65
-146 128 -209 103 -103 325 -207 549 -256 184 -41 310 -64 555 -101 22 -4 49
-8 60 -10 78 -13 202 -24 267 -24 43 0 78 -4 78 -9 0 -12 -79 -29 -168 -37
-70 -6 -244 11 -452 46 -30 5 -71 12 -90 15 -143 23 -311 55 -580 111 -82 16
-110 21 -110 17 0 -2 13 -24 29 -47 43 -62 133 -146 203 -188 100 -61 290
-127 443 -152 220 -37 339 -47 615 -55 236 -7 244 -7 210 -23 -64 -30 -192
-41 -370 -34 -141 5 -389 25 -510 41 -19 2 -84 10 -145 16 -60 6 -114 14 -119
16 -23 14 14 -29 59 -69 215 -190 461 -259 880 -245 174 6 275 20 403 56 39
11 72 16 72 11 0 -30 -181 -96 -320 -116 -65 -10 -328 -24 -443 -24 -125 0
-127 0 -115 -20 18 -28 141 -111 205 -138 101 -43 209 -62 348 -62 195 1 337
38 442 116 39 30 43 30 43 0 0 -13 -12 -35 -27 -50 -35 -35 -164 -97 -276
-132 -48 -15 -84 -31 -80 -35 23 -23 111 -60 167 -70 73 -14 163 -1 228 32 20
10 39 19 41 19 2 0 12 -19 23 -42 37 -86 127 -213 204 -289 129 -127 276 -211
456 -261 102 -28 322 -31 430 -6 276 63 526 259 650 508 21 41 39 77 40 79 2
2 27 -7 56 -20 80 -35 194 -33 269 4 31 15 63 35 73 46 16 18 15 19 -21 25
-65 12 -135 36 -210 72 -79 38 -119 81 -108 114 6 20 7 20 37 -5 91 -77 207
-109 393 -109 160 -1 245 18 372 81 65 32 173 112 181 134 2 5 -52 9 -120 9
-109 0 -370 14 -438 24 -130 17 -300 83 -300 116 0 5 18 3 40 -5 142 -50 398
-76 633 -63 256 13 412 65 576 193 63 49 130 115 115 115 -5 0 -70 -7 -144
-15 -399 -45 -469 -50 -705 -50 -180 1 -193 2 -240 25 l-50 24 250 7 c138 3
282 9 320 13 486 49 765 168 903 386 l29 46 -126 -28 c-355 -79 -688 -138
-888 -158 -95 -10 -142 -10 -215 -1 -185 24 -185 36 0 44 123 6 394 46 622 91
195 39 389 102 540 175 101 49 212 158 264 260 l39 74 -29 -8 c-16 -4 -54 -13
-84 -20 -30 -7 -107 -25 -170 -40 -63 -15 -122 -28 -130 -30 -8 -2 -78 -20
-155 -40 -77 -20 -147 -38 -155 -40 -8 -2 -55 -13 -105 -24 -49 -12 -108 -26
-130 -31 -197 -46 -553 -94 -530 -72 9 8 132 53 161 58 6 1 36 9 65 17 30 8
117 29 194 47 194 45 520 128 600 154 6 1 24 6 40 11 222 57 389 172 508 350
23 33 27 51 27 107 0 38 -3 68 -6 68 -11 0 -249 -64 -539 -144 -955 -265
-1089 -308 -1220 -394 -102 -67 -185 -154 -224 -235 -33 -68 -82 -251 -96
-357 -14 -105 -75 -213 -144 -253 l-31 -18 -16 38 c-46 110 -191 279 -315 366
-274 193 -636 229 -942 95 -201 -89 -382 -261 -477 -456 l-34 -71 -59 31 c-32
17 -71 47 -86 67 -35 44 -76 141 -86 201 -12 76 -55 242 -78 300 -46 117 -102
189 -205 263 -87 62 -131 85 -229 122 -80 31 -317 103 -493 151 -69 18 -138
38 -155 43 -28 9 -100 29 -135 37 -8 1 -67 17 -130 35 -63 17 -171 46 -240 64
-69 19 -152 41 -185 50 -33 9 -103 27 -155 41 -52 13 -103 27 -112 30 -16 5
-18 -2 -18 -44z m851 -303 c46 -17 247 -86 446 -153 222 -75 384 -136 419
-157 115 -68 211 -193 230 -299 21 -118 69 -285 99 -348 45 -91 124 -176 209
-226 36 -21 66 -40 66 -43 0 -7 -74 9 -127 29 -70 26 -154 104 -202 187 -39
68 -79 182 -106 309 -28 129 -52 179 -119 247 -76 77 -118 99 -326 165 -303
96 -590 225 -674 303 -22 21 -32 33 -20 28 12 -6 59 -24 105 -42z m4819 11
c-112 -96 -392 -223 -657 -300 -144 -41 -204 -66 -264 -108 -100 -70 -144
-152 -179 -337 -19 -95 -61 -215 -99 -280 -58 -100 -152 -183 -238 -209 -42
-13 -27 30 24 69 113 86 186 210 223 380 10 44 25 114 34 155 21 95 55 162
114 223 90 93 125 108 542 246 135 44 306 105 380 135 74 30 140 54 145 55 6
0 -6 -13 -25 -29z m-4503 -540 c141 -35 248 -54 403 -71 l115 -13 -45 -14
c-75 -25 -239 -21 -335 7 -84 25 -208 78 -247 105 -29 21 -29 21 109 -14z
m4228 21 c-18 -16 -108 -63 -159 -82 -92 -34 -208 -59 -270 -58 -55 1 -223 35
-186 38 177 14 380 48 535 90 83 23 92 24 80 12z m-1947 -226 c349 -83 586
-428 543 -791 -63 -531 -654 -813 -1116 -533 -58 35 -176 144 -210 193 -98
142 -127 226 -133 388 -4 105 -1 127 23 215 46 165 119 280 239 382 96 81 229
141 360 162 68 11 216 3 294 -16z m-1827 -190 c109 0 192 -3 185 -8 -6 -4 -42
-17 -80 -28 -82 -26 -154 -23 -272 11 -82 24 -125 46 -64 33 19 -4 123 -8 231
-8z m3474 7 c-17 -15 -164 -54 -223 -59 -58 -5 -158 14 -207 39 -20 11 1 13
128 10 120 -2 269 6 307 17 2 0 0 -3 -5 -7z m-3085 -276 c0 -11 -79 -49 -129
-61 -67 -18 -181 -19 -236 -3 -39 12 -38 12 60 20 55 4 141 16 190 26 97 21
115 24 115 18z m2590 -21 c69 -13 156 -25 195 -25 55 0 67 -2 57 -12 -18 -18
-223 -17 -283 0 -37 11 -117 60 -99 62 3 0 61 -11 130 -25z m-187 -276 c51
-24 57 -29 34 -29 -62 0 -120 23 -163 65 -61 58 -55 72 12 29 30 -19 83 -49
117 -65z m-2182 74 c-27 -51 -92 -87 -185 -101 -31 -5 -55 -8 -54 -7 8 7 234
124 241 124 4 1 3 -7 -2 -16z"/>
<path d="M3080 3111 c-105 -33 -201 -92 -280 -172 -86 -86 -116 -125 -125
-161 -7 -28 2 -32 190 -86 174 -51 192 -54 229 -38 63 26 67 42 74 271 6 234
13 218 -88 186z"/>
<path d="M3355 3023 c-11 -161 0 -280 31 -324 30 -44 61 -59 119 -59 93 0 375
73 375 98 0 23 -67 126 -113 174 -94 97 -196 162 -311 197 -37 12 -74 21 -81
21 -9 0 -15 -30 -20 -107z"/>
<path d="M3195 2626 c-137 -61 -115 -285 30 -312 106 -20 205 57 205 158 -1
48 -33 112 -70 138 -40 29 -121 37 -165 16z m131 -71 c38 -29 50 -71 34 -119
-23 -70 -112 -90 -169 -37 -26 24 -31 37 -31 74 0 39 5 49 35 76 44 39 86 40
131 6z"/>
<path d="M2594 2524 c-20 -166 62 -404 178 -512 l25 -22 58 87 c32 49 83 124
115 168 68 96 71 104 59 147 -13 50 -43 73 -146 112 -78 30 -242 76 -273 76
-5 0 -12 -25 -16 -56z"/>
<path d="M3727 2500 c-138 -36 -184 -53 -203 -72 -34 -33 -41 -92 -17 -135 43
-76 209 -303 221 -303 12 1 89 103 120 160 44 80 72 165 81 248 10 83 4 153
-13 151 -6 -1 -91 -22 -189 -49z"/>
<path d="M3204 2216 c-17 -8 -52 -38 -77 -67 -62 -72 -197 -250 -197 -260 0
-12 148 -66 217 -79 93 -18 222 -8 320 25 129 43 127 39 58 130 -33 43 -77
101 -98 129 -56 75 -88 107 -124 122 -40 17 -59 17 -99 0z"/>
</g>
</svg>
